<?xml version="1.0" encoding="utf-8"?><!-- Uploaded to: SVG Repo, www.svgrepo.com, Generator: SVG Repo Mixer Tools -->
<svg fill="#000000" width="800px" height="800px" viewBox="0 0 1024 1024" xmlns="http://www.w3.org/2000/svg"><path d="M829.44 911.36c45.009 0 81.92-36.911 81.92-81.92V194.56c0-45.009-36.911-81.92-81.92-81.92H194.56c-45.009 0-81.92 36.911-81.92 81.92v634.88c0 45.009 36.911 81.92 81.92 81.92h634.88zm0 40.96H194.56c-67.631 0-122.88-55.249-122.88-122.88V194.56c0-67.631 55.249-122.88 122.88-122.88h634.88c67.631 0 122.88 55.249 122.88 122.88v634.88c0 67.631-55.249 122.88-122.88 122.88z"/><path d="M364.802 724.907c0-36.756-29.804-66.56-66.56-66.56-36.762 0-66.56 29.8-66.56 66.56s29.798 66.56 66.56 66.56c36.756 0 66.56-29.804 66.56-66.56zm40.96 0c0 59.377-48.143 107.52-107.52 107.52-59.384 0-107.52-48.139-107.52-107.52s48.136-107.52 107.52-107.52c59.377 0 107.52 48.143 107.52 107.52z"/><path d="M405.762 719.787v-405.33c0-11.311-9.169-20.48-20.48-20.48s-20.48 9.169-20.48 20.48v405.33c0 11.311 9.169 20.48 20.48 20.48s20.48-9.169 20.48-20.48zm305.495-97.28c0-36.756-29.804-66.56-66.56-66.56-36.762 0-66.56 29.8-66.56 66.56s29.798 66.56 66.56 66.56c36.756 0 66.56-29.804 66.56-66.56zm40.96 0c0 59.377-48.143 107.52-107.52 107.52-59.384 0-107.52-48.139-107.52-107.52s48.136-107.52 107.52-107.52c59.377 0 107.52 48.143 107.52 107.52z"/><path d="M752.217 617.387v-405.33c0-11.311-9.169-20.48-20.48-20.48s-20.48 9.169-20.48 20.48v405.33c0 11.311 9.169 20.48 20.48 20.48s20.48-9.169 20.48-20.48z"/><path d="M391.087 334.093l346.46-102.4c10.847-3.206 17.041-14.598 13.835-25.445s-14.598-17.041-25.445-13.835l-346.46 102.4c-10.847 3.206-17.041 14.598-13.835 25.445s14.598 17.041 25.445 13.835zm0 122.423l346.46-102.4c10.847-3.206 17.041-14.598 13.835-25.445s-14.598-17.041-25.445-13.835l-346.46 102.4c-10.847 3.206-17.041 14.598-13.835 25.445s14.598 17.041 25.445 13.835z"/></svg>